# xmcd
#
# Track frame offsets: 
#        150
#        16126
#        26421
#        39551
#        53583
#        67344
#        78711
#        92330
#        106205
#        117935
#        132586
#        146988
#        162007
#        174947
#        190469
#        205863
#        222155
#        237576
#        248947
#        261617
#        274762
#        285855
#        298319
#        319712
#        330200
#
# Disc length: 4557 seconds
#
# Revision: 2
# Processed by: cddbd v1.5.2PL0 Copyright (c) Steve Scherf et al.
# Submitted via: ExactAudioCopy v0.95b4
#
DISCID=7711cb19
DTITLE=Dizzy Gillespie - The Dizzy Gillespie Story 1939-1950 [CD4 -
DTITLE=Dizzier and Dizzier)
DYEAR=2001
DGENRE=Jazz
TTITLE0=Lover Come Back to Me
TTITLE1=I'm Be Boppin' Too
TTITLE2=Swedish Suite
TTITLE3=St. Louis Blues
TTITLE4=Katy (Dizzier and Dizzier)
TTITLE5=Jump Di-Le-Ba
TTITLE6=Hey Pete, Le's Eat Mo' Meat
TTITLE7=Jumpin' with Symphony Sid
TTITLE8=In the Land of Oo-Bla-Dee
TTITLE9=Say When
TTITLE10=You Stole My Wife, You Horsethief
TTITLE11=Coast to Coast
TTITLE12=Oo-La-La
TTITLE13=Bloomdido
TTITLE14=An Oscar for Treadwell
TTITLE15=Mohawk
TTITLE16=My Melancholy Baby
TTITLE17=Leap Frog
TTITLE18=Relaxin' with Lee
TTITLE19=Swing Low Sweet Chariot
TTITLE20=Lullaby of the Leaves
TTITLE21=What is There to Say
TTITLE22=Alone Together
TTITLE23=On the Alamo
TTITLE24=Interlude in C
EXTD=YEAR: 2001
EXTT0=
EXTT1=
EXTT2=
EXTT3=
EXTT4=
EXTT5=
EXTT6=
EXTT7=
EXTT8=
EXTT9=
EXTT10=
EXTT11=
EXTT12=
EXTT13=
EXTT14=
EXTT15=
EXTT16=
EXTT17=
EXTT18=
EXTT19=
EXTT20=
EXTT21=
EXTT22=
EXTT23=
EXTT24=
PLAYORDER=
